<?xml version="1.0" standalone="no"?>
<!DOCTYPE svg PUBLIC "-//W3C//DTD SVG 20010904//EN"
 "http://www.w3.org/TR/2001/REC-SVG-20010904/DTD/svg10.dtd">
<svg version="1.0" xmlns="http://www.w3.org/2000/svg"
 width="1600.000000pt" height="1600.000000pt" viewBox="0 0 1600.000000 1600.000000"
 preserveAspectRatio="xMidYMid meet">
<metadata>
Created by potrace 1.11, written by Peter Selinger 2001-2013
</metadata>
<g transform="translate(0.000000,1600.000000) scale(0.100000,-0.100000)"
fill="#000000" stroke="none">
<path d="M8651 12606 c-25 -76 -2638 -9224 -2643 -9251 -3 -20 3 -20 661 -20
l665 0 42 150 c24 83 48 166 54 185 20 69 122 425 125 440 2 8 47 166 100 350
54 184 101 349 105 365 4 17 31 111 60 210 28 99 53 187 55 195 2 8 38 134 80
280 42 146 78 272 80 280 2 8 155 544 340 1190 186 646 341 1189 345 1205 4
17 121 426 260 910 138 484 253 887 255 895 2 8 29 103 60 210 31 107 60 209
65 225 4 17 31 111 60 210 28 99 53 187 55 195 5 22 172 606 190 665 18 57
125 432 130 455 3 13 186 652 200 701 5 14 -62 15 -660 15 l-665 0 -19 -60z"/>
<path d="M4015 11332 c-11 -2 -46 -35 -77 -75 -68 -87 -59 -75 -250 -313 -84
-106 -165 -207 -180 -225 -136 -171 -576 -722 -598 -749 -63 -79 -287 -359
-315 -394 -16 -22 -34 -44 -40 -50 -5 -6 -37 -45 -70 -86 -33 -41 -65 -82 -72
-90 -21 -26 -306 -384 -338 -424 -16 -22 -34 -44 -40 -50 -5 -6 -28 -34 -50
-61 -22 -28 -44 -55 -50 -62 -5 -6 -21 -26 -35 -44 -14 -18 -117 -148 -230
-289 -113 -141 -218 -273 -235 -294 -16 -22 -35 -44 -40 -50 -27 -29 -55 -70
-55 -80 0 -6 13 -24 28 -41 15 -16 79 -95 142 -175 62 -80 117 -147 120 -150
3 -3 28 -34 55 -70 28 -36 52 -67 56 -70 3 -3 68 -84 144 -180 77 -96 142
-177 145 -180 3 -3 28 -34 55 -70 28 -36 52 -67 56 -70 3 -3 32 -39 65 -80 32
-41 66 -84 76 -95 15 -19 569 -712 626 -784 46 -57 652 -815 665 -831 14 -17
125 -156 144 -180 7 -8 36 -44 65 -81 29 -36 67 -82 83 -103 17 -22 45 -57 63
-79 18 -22 42 -51 53 -65 l20 -26 652 -1 c359 0 658 1 664 3 10 3 -32 67 -67
102 -3 3 -21 25 -40 50 -43 55 -45 59 -71 90 -12 14 -33 41 -48 60 -14 19 -32
41 -39 48 -7 8 -25 30 -40 50 -15 21 -29 39 -32 42 -3 3 -51 61 -105 130 -55
69 -106 132 -112 140 -7 8 -83 103 -168 210 -86 107 -161 202 -168 210 -7 8
-39 49 -72 90 -33 41 -62 77 -65 80 -3 3 -21 25 -40 50 -19 25 -41 52 -47 60
-25 30 -359 447 -388 484 -24 31 -113 142 -268 336 -304 379 -695 869 -704
880 -34 43 -127 158 -142 175 -33 39 -33 45 -5 83 15 20 31 39 34 42 3 3 39
48 80 100 41 52 77 97 80 100 3 3 73 90 155 194 83 103 157 196 165 206 8 10
27 33 42 51 107 136 376 471 403 504 18 22 144 180 279 350 136 171 255 319
264 330 9 11 35 43 57 70 22 28 44 55 50 62 5 6 20 24 32 40 12 15 119 150
238 298 118 149 226 283 238 299 12 16 27 34 32 40 8 9 43 51 102 126 6 8 95
119 196 245 102 127 183 232 181 234 -5 5 -1277 8 -1309 3z"/>
<path d="M10675 11330 c-2 -4 309 -398 418 -530 7 -8 248 -310 536 -670 288
-360 537 -671 552 -690 26 -31 242 -303 272 -340 16 -21 369 -461 384 -480
156 -192 493 -616 493 -620 0 -3 -152 -195 -338 -427 -185 -231 -350 -438
-367 -459 -16 -21 -122 -153 -235 -294 -113 -141 -218 -273 -235 -294 -16 -22
-34 -44 -40 -50 -5 -6 -28 -34 -50 -61 -22 -28 -44 -55 -50 -62 -5 -7 -14 -18
-20 -25 -11 -15 -124 -156 -142 -178 -7 -8 -35 -44 -63 -80 -28 -36 -66 -83
-84 -105 -18 -22 -205 -256 -416 -519 -210 -263 -389 -486 -396 -495 -120
-147 -222 -281 -216 -283 4 -2 303 -3 664 -3 l657 1 20 25 c15 19 334 417 473
591 14 18 122 152 238 298 117 146 226 282 243 304 18 21 189 235 380 475 192
240 361 452 377 471 44 55 282 352 315 394 17 21 40 50 52 64 32 40 433 542
468 586 17 22 35 44 40 50 27 29 55 70 55 80 0 6 -13 25 -28 41 -15 17 -79 95
-142 175 -62 80 -117 147 -120 150 -3 3 -28 34 -55 70 -28 36 -52 67 -56 70
-3 3 -89 111 -192 240 -104 129 -193 242 -200 250 -7 8 -39 49 -72 90 -33 41
-67 84 -77 95 -22 27 -425 532 -463 579 -16 21 -63 80 -103 130 -40 50 -79 98
-85 106 -43 53 -294 367 -304 380 -7 8 -54 67 -104 130 -50 63 -99 124 -108
135 -16 20 -85 106 -108 135 -7 8 -109 136 -228 284 l-216 270 -660 0 c-364 1
-662 -1 -664 -4z"/>
</g>
</svg>
